<?xml version="1.0" encoding="UTF-8"?>
<!DOCTYPE svg PUBLIC "-//W3C//DTD SVG 1.1//EN" "http://www.w3.org/Graphics/SVG/1.1/DTD/svg11.dtd">
<!-- Creator: CorelDRAW X6 -->
<svg xmlns="http://www.w3.org/2000/svg" xml:space="preserve" width="114.339mm" height="114.339mm" version="1.1" style="shape-rendering:geometricPrecision; text-rendering:geometricPrecision; image-rendering:optimizeQuality; fill-rule:evenodd; clip-rule:evenodd"
viewBox="0 0 8065 8065"
 xmlns:xlink="http://www.w3.org/1999/xlink">
 <defs>
  <style type="text/css">
   <![CDATA[
    .fil2 {fill:none}
    .fil0 {fill:#1B5F8F}
    .fil1 {fill:#F08228}
   ]]>
  </style>
 </defs>
 <g id="Ebene_x0020_1">
  <metadata id="CorelCorpID_0Corel-Layer"/>
  <g id="_914220336">
   <path class="fil0" d="M1364 2633l0 991c-170,8 -348,22 -536,41l0 -1032 -588 0 0 -419 1714 0 0 419 -591 0zm1938 1103l0 -423 -607 0 0 345c-173,-18 -350,-31 -536,-39l0 -1406 536 0 0 680 607 0 0 -680 536 0 0 1608 -42 -7c-167,-27 -330,-54 -494,-78zm2536 -420c0,125 -22,234 -67,328 -44,93 -105,171 -181,233 -70,57 -151,100 -243,130 -155,-4 -311,-16 -469,-34 -151,-18 -295,-37 -434,-57 -12,-8 -24,-17 -35,-26 -74,-58 -133,-132 -176,-223 -43,-91 -64,-200 -64,-327l0 -1127 536 0 0 1110c0,49 5,95 15,139 10,44 26,82 49,114 23,33 53,59 91,79 38,20 84,30 139,30 54,0 101,-10 140,-30 39,-20 70,-46 94,-79 24,-33 41,-71 52,-114 11,-44 16,-90 16,-139l0 -1110 536 0 0 1102zm1363 -547c0,-45 -9,-82 -27,-110 -19,-29 -43,-50 -73,-64 -30,-15 -65,-24 -104,-29 -39,-5 -80,-8 -122,-8l-186 0 0 441 175 0c42,0 83,-3 123,-10 40,-6 76,-17 108,-34 32,-16 57,-39 77,-68 19,-29 29,-68 29,-117zm-28 1000l-62 -203c-13,-42 -25,-77 -37,-106 -12,-29 -27,-52 -46,-69 -19,-17 -44,-30 -73,-38 -30,-8 -68,-12 -116,-12l-147 0 0 545c-173,35 -348,64 -525,84l0 -1756 909 0c80,0 159,8 238,23 79,15 150,42 212,79 63,37 113,87 152,149 39,63 59,141 59,235 0,65 -11,124 -33,176 -22,51 -52,96 -90,133 -38,37 -83,68 -135,91 -52,24 -108,42 -170,54 93,18 162,50 208,95 46,45 84,113 113,202l50 157c-167,59 -336,113 -508,161z"/>
   <path class="fil1" d="M5612 4375l0 1474c-222,4 -448,-5 -676,-29l1 -1472c227,22 452,31 674,27zm-1788 775l2 -959c219,36 444,72 682,104l-2 960c-240,-34 -464,-70 -682,-105zm-1113 -421l1 -700c232,25 456,57 682,92l-2 698c-225,-35 -449,-66 -682,-90zm-1101 496l1 -1243c237,-6 459,-1 670,11l2 1242c-212,-12 -435,-16 -673,-11zm-1113 -549l1 -602c243,-33 469,-56 682,-71l-1 604c-213,15 -439,37 -682,69zm6656 3l1 -525c227,-60 450,-129 670,-208l1 514c-219,82 -443,156 -671,219zm-1113 915l1 -1243c231,-21 458,-54 682,-98l-1 1237c-224,47 -451,82 -682,104z"/>
  </g>
  <rect class="fil2" width="8065" height="8065"/>
 </g>
</svg>
