<?xml version="1.0" encoding="UTF-8"?>
<!DOCTYPE svg PUBLIC "-//W3C//DTD SVG 1.1//EN" "http://www.w3.org/Graphics/SVG/1.1/DTD/svg11.dtd">
<!-- Creator: CorelDRAW X6 -->
<svg xmlns="http://www.w3.org/2000/svg" xml:space="preserve" width="217.53mm" height="47.6698mm" version="1.1" style="shape-rendering:geometricPrecision; text-rendering:geometricPrecision; image-rendering:optimizeQuality; fill-rule:evenodd; clip-rule:evenodd"
viewBox="0 0 21950 4810"
 xmlns:xlink="http://www.w3.org/1999/xlink">
 <defs>
  <style type="text/css">
   <![CDATA[
    .fil1 {fill:#1B5F8F}
    .fil3 {fill:#7690C9}
    .fil2 {fill:#F08228}
    .fil0 {fill:#666666;fill-rule:nonzero}
   ]]>
  </style>
 </defs>
 <g id="Ebene_x0020_1">
  <metadata id="CorelCorpID_0Corel-Layer"/>
  <path class="fil0" d="M8860 4748l0 -198c153,50 308,74 464,74 208,0 311,-62 311,-186 0,-116 -72,-174 -217,-174l-186 0c-281,0 -422,-128 -422,-385 0,-248 181,-372 542,-372 155,0 310,21 463,62l0 199c-153,-50 -308,-75 -463,-75 -216,0 -325,62 -325,186 0,116 68,174 205,174l186 0c298,0 446,128 446,385 0,248 -180,372 -541,372 -156,0 -311,-21 -464,-62z"/>
  <polygon id="1" class="fil0" points="10033,3507 10264,3507 10495,4529 10834,3507 11041,3507 11404,4529 11612,3507 11855,3507 11516,4810 11306,4810 10932,3836 10577,4810 10363,4810 "/>
  <path id="2" class="fil0" d="M12339 3507l0 1303 -230 0 0 -1303 230 0zm0 -472l0 217 -230 0 0 -217 230 0z"/>
  <path id="3" class="fil0" d="M12724 4748l0 -198c153,50 308,74 464,74 208,0 311,-62 311,-186 0,-116 -72,-174 -217,-174l-186 0c-281,0 -422,-128 -422,-385 0,-248 181,-372 542,-372 155,0 310,21 463,62l0 199c-153,-50 -308,-75 -463,-75 -216,0 -325,62 -325,186 0,116 68,174 205,174l186 0c298,0 446,128 446,385 0,248 -180,372 -541,372 -156,0 -311,-21 -464,-62z"/>
  <path id="4" class="fil0" d="M14027 4748l0 -198c153,50 308,74 464,74 208,0 311,-62 311,-186 0,-116 -72,-174 -217,-174l-186 0c-281,0 -422,-128 -422,-385 0,-248 181,-372 542,-372 155,0 310,21 463,62l0 199c-153,-50 -308,-75 -463,-75 -216,0 -325,62 -325,186 0,116 68,174 205,174l186 0c298,0 446,128 446,385 0,248 -180,372 -541,372 -156,0 -311,-21 -464,-62z"/>
  <path id="5" class="fil0" d="M16943 4773c-108,25 -223,37 -347,37 -463,0 -695,-225 -695,-676 0,-418 232,-626 695,-626 124,0 240,12 347,37l0 186c-108,-25 -227,-37 -360,-37 -302,0 -453,147 -453,441 0,327 151,490 453,490 133,0 252,-12 360,-37l0 186z"/>
  <polygon id="6" class="fil0" points="17477,3035 17477,4810 17247,4810 17247,3035 "/>
  <path id="7" class="fil0" d="M18029 4154c0,313 130,470 391,470 261,0 391,-157 391,-470 0,-307 -130,-460 -391,-460 -260,0 -391,154 -391,460zm-230 5c0,-435 207,-651 621,-651 413,0 621,217 621,651 0,433 -207,650 -621,650 -412,0 -619,-217 -621,-650z"/>
  <path id="8" class="fil0" d="M20474 3507l0 1303 -158 0 -40 -166c-158,111 -317,166 -477,166 -299,0 -449,-162 -449,-485l0 -818 229 0 0 821c0,194 96,291 288,291 132,0 257,-55 376,-165l0 -947 230 0z"/>
  <path id="9" class="fil0" d="M21721 3773c-93,-45 -199,-67 -318,-67 -262,0 -394,139 -394,418 0,330 131,495 394,495 119,0 225,-16 318,-48l0 -798zm230 959c-158,52 -353,78 -585,78 -388,0 -582,-226 -582,-678 0,-417 206,-625 618,-625 113,0 219,21 319,62l0 -534 230 0 0 1696z"/>
  <path class="fil1" d="M1416 528l0 1249c-214,11 -438,28 -676,52l0 -1301 -741 0 0 -528 2160 0 0 528 -744 0zm2442 1390l0 -533 -765 0 0 435c-218,-22 -441,-39 -676,-49l0 -1772 676 0 0 857 765 0 0 -857 676 0 0 2026 -53 -9c-210,-34 -416,-68 -622,-99zm3196 -530c0,158 -28,295 -84,413 -56,118 -132,215 -228,293 -88,72 -190,126 -306,164 -195,-6 -392,-20 -591,-43 -190,-22 -372,-46 -547,-71 -15,-10 -30,-21 -45,-33 -94,-73 -167,-167 -221,-281 -54,-114 -81,-251 -81,-412l0 -1420 676 0 0 1399c0,62 6,120 19,175 13,55 33,103 62,144 29,41 67,74 115,99 48,25 106,38 175,38 69,0 127,-13 177,-38 49,-25 89,-58 118,-99 30,-41 51,-89 65,-144 14,-55 21,-113 21,-175l0 -1399 676 0 0 1389zm1718 -689c0,-57 -11,-103 -34,-139 -23,-36 -54,-63 -91,-81 -38,-18 -82,-30 -131,-37 -50,-7 -101,-10 -154,-10l-234 0 0 556 221 0c53,0 105,-4 155,-12 50,-8 95,-22 136,-42 40,-20 72,-49 97,-86 24,-37 36,-86 36,-147zm-35 1261l-78 -256c-16,-53 -31,-97 -46,-134 -15,-37 -34,-66 -58,-87 -24,-22 -55,-38 -93,-48 -38,-10 -86,-15 -146,-15l-185 0 0 687c-218,44 -439,80 -662,106l0 -2213 1145 0c101,0 201,10 300,29 99,19 189,53 267,99 79,46 143,109 192,188 49,79 74,178 74,296 0,82 -14,156 -41,221 -27,65 -65,121 -113,167 -48,47 -105,85 -170,115 -65,30 -137,53 -214,69 117,23 204,63 262,120 58,57 106,142 142,254l64 198c-210,74 -424,142 -640,203z"/>
  <path class="fil2" d="M6769 2723l0 1858c-280,5 -564,-6 -851,-36l2 -1856c287,28 570,39 849,34zm-2253 977l2 -1209c276,45 559,90 859,132l-2 1210c-302,-42 -585,-88 -859,-133zm-1402 -530l2 -882c292,31 575,71 859,116l-2 880c-284,-44 -566,-83 -859,-114zm-1388 625l2 -1566c299,-7 578,-1 844,14l2 1566c-267,-15 -548,-20 -848,-14zm-1402 -692l2 -758c306,-41 591,-70 860,-89l-2 761c-269,19 -554,47 -860,87zm8388 4l1 -662c286,-75 568,-163 844,-262l1 648c-276,103 -558,196 -845,275zm-1403 1153l1 -1566c291,-26 577,-68 860,-124l-1 1559c-282,59 -569,104 -860,131z"/>
  <path class="fil3" d="M11683 1224c0,-139 -19,-265 -57,-379 -38,-113 -94,-211 -167,-293 -73,-82 -165,-145 -274,-188 -109,-44 -234,-66 -376,-66l-312 0 0 1007c-130,61 -262,120 -395,177l0 -1480 750 0c395,0 702,103 920,309 218,206 327,510 327,913 0,212 -33,395 -99,549 -66,154 -159,280 -278,379 -119,99 -263,172 -430,220 -167,48 -351,71 -551,71l-640 0 0 -456c133,-55 265,-111 395,-170l0 329 202 0c316,0 559,-73 729,-218 170,-145 255,-380 255,-704zm1701 -937l-468 1226 933 0 -465 -1226zm798 2155l-234 -640 -1131 0 -241 640 -388 0 951 -2440 501 0 959 2440 -417 0zm1420 -2111l0 2111 -395 0 0 -2111 -743 0 0 -329 1884 0 0 329 -746 0zm1811 -44l-468 1226 933 0 -465 -1226zm798 2155l-234 -640 -1131 0 -241 640 -388 0 951 -2440 501 0 959 2440 -417 0z"/>
 </g>
</svg>
